<?xml version="1.0" encoding="UTF-8" standalone="no"?>
<svg
   xmlns:dc="http://purl.org/dc/elements/1.1/"
   xmlns:cc="http://creativecommons.org/ns#"
   xmlns:rdf="http://www.w3.org/1999/02/22-rdf-syntax-ns#"
   xmlns:svg="http://www.w3.org/2000/svg"
   xmlns="http://www.w3.org/2000/svg"
   xmlns:xlink="http://www.w3.org/1999/xlink"
   xmlns:sodipodi="http://sodipodi.sourceforge.net/DTD/sodipodi-0.dtd"
   xmlns:inkscape="http://www.inkscape.org/namespaces/inkscape"
   width="210mm"
   height="297mm"
   viewBox="0 0 210 297"
   version="1.1"
   id="svg8"
   inkscape:version="1.0.1 (3bc2e813f5, 2020-09-07)"
   sodipodi:docname="TodoApp List.svg"
   inkscape:export-filename="C:\Users\Home\Desktop\TodoApp List.png"
   inkscape:export-xdpi="96"
   inkscape:export-ydpi="96">
  <defs
     id="defs2">
    <clipPath
       clipPathUnits="userSpaceOnUse"
       id="clipPath1063">
      <use
         x="0"
         y="0"
         xlink:href="#g1059"
         id="use1065" />
    </clipPath>
    <clipPath
       clipPathUnits="userSpaceOnUse"
       id="clipPath1098">
      <g
         inkscape:label="Clip"
         id="use1100">
        <path
           style="fill:none;stroke:#000000;stroke-width:0.264583px;stroke-linecap:butt;stroke-linejoin:miter;stroke-opacity:1"
           d="m 94.874153,74.085439 9.402157,7.087055 0.0472,-3.189174 -5.008187,-4.181361 4.960937,-4.181364 -0.0236,-3.141927 z"
           id="path1105" />
        <path
           style="fill:none;stroke:#000000;stroke-width:0.264583px;stroke-linecap:butt;stroke-linejoin:miter;stroke-opacity:1"
           d="m 116.22537,73.644409 -9.40216,-7.08705 -0.0472,3.18917 5.00819,4.18136 -4.96094,4.18137 0.0236,3.14192 z"
           id="path1107" />
      </g>
    </clipPath>
  </defs>
  <sodipodi:namedview
     id="base"
     pagecolor="#ffffff"
     bordercolor="#666666"
     borderopacity="1.0"
     inkscape:pageopacity="0.0"
     inkscape:pageshadow="2"
     inkscape:zoom="0.49497475"
     inkscape:cx="541.84417"
     inkscape:cy="585.38657"
     inkscape:document-units="mm"
     inkscape:current-layer="layer1"
     inkscape:document-rotation="0"
     showgrid="false"
     inkscape:window-width="2560"
     inkscape:window-height="1017"
     inkscape:window-x="-8"
     inkscape:window-y="-8"
     inkscape:window-maximized="1" />
  <metadata
     id="metadata5">
    <rdf:RDF>
      <cc:Work
         rdf:about="">
        <dc:format>image/svg+xml</dc:format>
        <dc:type
           rdf:resource="http://purl.org/dc/dcmitype/StillImage" />
        <dc:title />
      </cc:Work>
    </rdf:RDF>
  </metadata>
  <g
     inkscape:label="Layer 1"
     inkscape:groupmode="layer"
     id="layer1">
    <rect
       style="fill:#263467;fill-opacity:1;stroke:none;stroke-width:0.952;stroke-miterlimit:4;stroke-dasharray:none;stroke-opacity:0.405622"
       id="rect1067"
       width="39.120537"
       height="50.648819"
       x="29.638739"
       y="35.910217" />
    <rect
       style="fill:#f0f7ff;fill-opacity:1;stroke-width:0.30708"
       id="rect28"
       width="19.560268"
       height="50.648811"
       x="32.662552"
       y="38.934021" />
    <rect
       style="fill:#dfe7f4;fill-opacity:1;stroke-width:0.307081"
       id="rect28-2"
       width="19.560268"
       height="50.648811"
       x="52.222824"
       y="38.934021" />
    <rect
       style="fill:#00004b;fill-opacity:0.146179;fill-rule:evenodd;stroke-width:0.264583"
       id="rect35-3"
       width="14.031651"
       height="3.4745038"
       x="54.990704"
       y="60.937454" />
    <circle
       id="path45"
       style="fill:#dfe7f4;stroke:#000000;stroke-width:0.264583"
       cx="61.240925"
       cy="91.529053"
       r="0.006244137" />
    <path
       style="fill:#b548ff;fill-opacity:1;stroke:none;stroke-width:0.264583px;stroke-linecap:butt;stroke-linejoin:miter;stroke-opacity:1"
       d="m 38.899164,73.471589 -2.315105,2.52772 5.008185,4.7247 6.567336,-8.26823 -2.858444,-2.008 -4.15774,5.14993 z"
       id="path47" />
    <path
       style="fill:#b548ff;fill-opacity:1;stroke:none;stroke-width:0.264583px;stroke-linecap:butt;stroke-linejoin:miter;stroke-opacity:1"
       d="m 38.589427,49.001589 -2.315105,2.52772 5.008185,4.7247 3.876532,-4.88053 2.690804,-3.3877 -2.858444,-2.008 -4.157741,5.14993 z"
       id="path47-7"
       sodipodi:nodetypes="cccccccc" />
    <path
       style="fill:#b548ff;fill-opacity:1;stroke:none;stroke-width:0.264583px;stroke-linecap:butt;stroke-linejoin:miter;stroke-opacity:1"
       d="m 38.257307,61.627439 -2.315105,2.52772 5.008185,4.72469 6.567336,-8.26822 -2.858444,-2.008 -4.15774,5.14993 z"
       id="path47-4" />
    <path
       style="fill:#c7cfe1;fill-opacity:1;stroke:#000000;stroke-width:0.952;stroke-linecap:butt;stroke-linejoin:miter;stroke-miterlimit:4;stroke-dasharray:none;stroke-opacity:0.405622"
       d="m 55.105864,77.274639 c 0,0 0.819432,-2.1397 1.415006,-2.50995 0.644785,-0.40085 0.278694,-0.26461 1.498628,1.4725"
       id="path895-1"
       sodipodi:nodetypes="csc" />
    <g
       id="g1061"
       clip-path="url(#clipPath1063)"
       transform="matrix(0.9788697,0,0,0.98584137,-54.521346,-79.54307)">
      <g
         inkscape:label="Clip"
         id="g1059">
        <path
           style="fill:#ffe1ba;fill-opacity:1;stroke:none;stroke-width:0.264583px;stroke-linecap:butt;stroke-linejoin:miter;stroke-opacity:1"
           d="m 118.87702,145.52642 -4.30768,12.76726 13.00284,-4.11404 -1.02862,-1.02922 -0.34049,-1.35427 -1.3856,-0.45924 -0.39836,-1.30566 -1.32302,-0.32741 -0.48813,-1.21898 -1.42975,-0.45668 -0.36794,-1.14813 -1.28017,-0.13359 z"
           id="path1013"
           sodipodi:nodetypes="ccccccccccccc" />
        <path
           style="fill:#000012;fill-opacity:1;stroke:none;stroke-width:0.264583px;stroke-linecap:butt;stroke-linejoin:miter;stroke-opacity:1"
           d="m 115.14494,156.59925 1.04708,1.18912 -1.62268,0.50531 z"
           id="path1015"
           sodipodi:nodetypes="cccc" />
        <path
           style="fill:#d653ff;fill-opacity:1;stroke:none;stroke-width:0.264583px;stroke-linecap:butt;stroke-linejoin:miter;stroke-opacity:1"
           d="m 127.80061,154.07202 -1.25705,-0.9216 -0.34049,-1.35427 -1.3856,-0.45924 -0.39836,-1.30566 -1.32302,-0.32741 -0.48813,-1.21898 -1.42975,-0.45668 -0.36794,-1.14813 -1.28017,-0.13359 -0.54677,-1.49171 20.42823,-20.40476 9.09527,8.56908 z"
           id="path1017"
           sodipodi:nodetypes="cccccccccccccc" />
        <path
           style="fill:none;stroke:none;stroke-width:0.264583px;stroke-linecap:butt;stroke-linejoin:miter;stroke-opacity:1"
           d="m 148.50683,133.41906 0.68484,-0.69535 -9.09003,-8.5235 -0.69008,0.64978 z"
           id="path1023" />
        <path
           style="fill:#263467;fill-opacity:1;stroke:none;stroke-width:0.264583px;stroke-linecap:butt;stroke-linejoin:miter;stroke-opacity:1"
           d="m 140.10164,124.2002 9.09003,8.52351 3.32359,-3.37004 -8.81358,-8.81358 z"
           id="path1025" />
        <path
           style="fill:#d6a2ff;fill-opacity:1;stroke:none;stroke-width:0.264583px;stroke-linecap:butt;stroke-linejoin:miter;stroke-opacity:1"
           d="m 123.27984,149.68714 20.41702,-20.6181 4.62098,4.35003 -20.51723,20.65295 -1.25705,-0.9216 -0.34049,-1.35427 -1.3856,-0.45924 -0.39836,-1.30566 z"
           id="path1051"
           sodipodi:nodetypes="ccccccccc" />
      </g>
    </g>
    <rect
       style="fill:#00004b;fill-rule:evenodd;stroke-width:0.264583;fill-opacity:0.14617941"
       id="rect35"
       width="14.03165"
       height="3.4745038"
       x="54.790253"
       y="48.776688" />
    <path
       style="fill:#e4d66b;fill-opacity:0.604651;stroke:none;stroke-width:0.141756px;stroke-linecap:butt;stroke-linejoin:miter;stroke-opacity:1"
       d="m 130.63616,67.765335 c 0,0 -12.55532,15.00332 -16.47383,14.12777 -2.79542,-0.6246 5.92031,6.11068 5.92031,6.11068 l 4.35793,-6.04685 c 1.58804,-2.20348 -2.09124,7.8274 -2.09124,7.8274 1.08142,0.84646 4.20927,3.09569 5.29069,3.94216 0.91539,0.71651 2.44471,-8.58668 3.3601,-7.87017 0.59912,0.46895 -1.46212,9.55485 -0.863,10.02381 l 7.01513,5.491015 c 0.45352,0.35498 4.36843,-24.976905 1.64997,0.4273 -0.0993,0.9279 0.96349,1.64528 2.50339,2.25455 1.06649,0.42195 2.36184,0.79205 3.65849,1.14431 2.41013,0.65475 4.82482,1.24785 5.78285,1.99775 l 3.25697,-23.010785 z"
       id="path868"
       sodipodi:nodetypes="cscscscsscssccc" />
    <path
       style="fill:#db8200;fill-opacity:0.607973;stroke:none;stroke-width:0.262812px;stroke-linecap:butt;stroke-linejoin:miter;stroke-opacity:1"
       d="m 129.67029,65.003575 c 1.346,0.36653 30.62161,19.05991 30.62161,19.05991 0,0 1.78369,-9.16212 -0.3431,-12.98982 -3.94635,-7.10241 -15.68717,-11.54896 -20.56063,-14.04654 -6.93574,-3.55447 -9.71788,7.97645 -9.71788,7.97645"
       id="path870"
       sodipodi:nodetypes="ccasc" />
    <path
       style="fill:#000000;fill-opacity:0.607973;stroke:none;stroke-width:0.264583px;stroke-linecap:butt;stroke-linejoin:miter;stroke-opacity:0.614618"
       d="m 146.99824,59.066565 c 0.26727,-3.47451 5.07811,-22.45064 5.07811,-22.45064 l 12.82894,8.81989 -13.94176,15.83262 z"
       id="path874"
       sodipodi:nodetypes="ccccc" />
  </g>
</svg>
